<svg xmlns="http://www.w3.org/2000/svg" class="rishi-icon" width="18.823" height="19.788" viewBox="0 0 18.823 19.788">
                <path id="Phone" d="M15.925,19.741a8.537,8.537,0,0,1-3.747-1.51,20.942,20.942,0,0,1-3.524-3.094,51.918,51.918,0,0,1-3.759-4.28A13.13,13.13,0,0,1,2.75,6.867a6.3,6.3,0,0,1-.233-2.914,5.144,5.144,0,0,1,1.66-2.906A7.085,7.085,0,0,1,5.306.221,1.454,1.454,0,0,1,6.9.246a5.738,5.738,0,0,1,2.443,2.93,1.06,1.06,0,0,1-.117,1.072c-.283.382-.578.754-.863,1.136-.251.338-.512.671-.736,1.027a.946.946,0,0,0,.01,1.108c.564.791,1.11,1.607,1.723,2.36a30.024,30.024,0,0,0,3.672,3.8c.3.255.615.481.932.712a.892.892,0,0,0,.96.087,10.79,10.79,0,0,0,.989-.554c.443-.283.878-.574,1.314-.853a1.155,1.155,0,0,1,1.207-.024,5.876,5.876,0,0,1,2.612,2.572,1.583,1.583,0,0,1-.142,1.795,5.431,5.431,0,0,1-4.353,2.362A6.181,6.181,0,0,1,15.925,19.741Z" transform="translate(-2.441 0.006)"></path></svg>