<svg xmlns="http://www.w3.org/2000/svg" width="62" height="62" viewBox="0 0 62 62" fill="none"><rect width="62" height="62" rx="4" fill="#809FFF"></rect><path d="M36.6666 43C36.6666 43.5523 37.1144 44 37.6666 44C38.2189 44 38.6666 43.5523 38.6666 43H36.6666ZM15.3333 43C15.3333 43.5523 15.781 44 16.3333 44C16.8856 44 17.3333 43.5523 17.3333 43H15.3333ZM24.8666 36H29.1333V34H24.8666V36ZM29.1333 36C33.3556 36 36.6666 39.1938 36.6666 43H38.6666C38.6666 37.9696 34.3367 34 29.1333 34V36ZM24.8666 34C19.6633 34 15.3333 37.9696 15.3333 43H17.3333C17.3333 39.1938 20.6443 36 24.8666 36V34Z" fill="white"></path><path d="M44.6666 43C44.6666 43.5523 45.1144 44 45.6666 44C46.2189 44 46.6666 43.5523 46.6666 43H44.6666ZM40.6881 34.6466C40.1718 34.4506 39.5943 34.7104 39.3984 35.2267C39.2024 35.7431 39.4622 36.3205 39.9785 36.5165L40.6881 34.6466ZM39.9785 36.5165C42.7609 37.5724 44.6666 40.1027 44.6666 43H46.6666C46.6666 39.1826 44.1603 35.9643 40.6881 34.6466L39.9785 36.5165Z" fill="white"></path><path d="M27 29.6667C29.9455 29.6667 32.3334 27.2789 32.3334 24.3333C32.3334 21.3878 29.9455 19 27 19C24.0545 19 21.6667 21.3878 21.6667 24.3333C21.6667 27.2789 24.0545 29.6667 27 29.6667Z" stroke="white" stroke-width="2" stroke-linecap="round" stroke-linejoin="round"></path><path d="M36.3333 19.1733C37.4805 19.4671 38.4974 20.1343 39.2235 21.0698C39.9496 22.0052 40.3438 23.1558 40.3438 24.34C40.3438 25.5242 39.9496 26.6748 39.2235 27.6103C38.4974 28.5457 37.4805 29.2129 36.3333 29.5067" stroke="white" stroke-width="2" stroke-linecap="round" stroke-linejoin="round"></path></svg>