<svg width="20px" height="20px" class="rishi-icon" viewBox="0 0 20 20" xmlns="http://www.w3.org/2000/svg">
						<g clip-path="url(#clip0_232_4313)">
                    	<path d="M0.13108 0.139647C3.99795 5.64756 7.72555 10.9678 7.73374 10.994C7.73784 11.0114 7.58218 11.2122 7.38556 11.4392C7.18484 11.6661 6.12391 12.8925 5.01792 14.1626C2.65028 16.8903 2.3021 17.2919 0.991296 18.7976C0.446493 19.4261 0 19.9498 0 19.9629C0 19.976 0.385049 19.9891 0.856119 19.9891H1.71633L2.74859 18.8019C5.53815 15.5941 8.27035 12.4473 8.39734 12.2946L8.54071 12.1244L11.3016 16.0567L14.0584 19.9891H17.0241C18.6544 19.9891 19.9898 19.976 19.9898 19.9629C19.9898 19.9367 19.2033 18.8107 14.554 12.1855C13.0835 10.0905 11.8792 8.35787 11.8792 8.33605C11.8792 8.30986 13.4931 6.43316 15.4634 4.16802C17.4337 1.89851 19.0476 0.0349009 19.0476 0.0218076C19.0476 0.00871429 18.6544 -1.45696e-05 18.1792 0.00434986L17.3067 0.00871429L14.3574 3.40424C12.7353 5.27222 11.3303 6.89578 11.236 7.01362L11.0599 7.21875L10.9903 7.11401C10.9534 7.05727 10.0154 5.72175 8.90937 4.14619C7.80338 2.575 6.69739 0.99944 6.45161 0.641557L6.00512 -1.45696e-05H3.01895H0.0327701L0.13108 0.139647ZM8.88889 6.42443C16.3973 17.1173 17.3477 18.4746 17.3804 18.5314C17.4091 18.5837 17.2002 18.5925 16.0492 18.5925L14.6851 18.5881L13.9027 17.4664C13.0425 16.2357 9.3149 10.9242 5.23502 5.1151C3.79724 3.06818 2.62161 1.38351 2.62161 1.37042C2.62161 1.36169 3.23605 1.35732 3.98157 1.36169L5.34153 1.37478L8.88889 6.42443Z"></path>
						</g>
						<defs>
						<clipPath id="clip0_232_4313">
						<rect width="20" height="20" fill="white"></rect>
						</clipPath>
                    </defs>
            	</svg>